<svg width="100" height="75" viewBox="0 0 100 75" fill="none" xmlns="http://www.w3.org/2000/svg">
<path d="M34.0102 61.6303L33.5087 58.6605C33.366 57.8045 33.183 56.4675 33.0437 55.5408H32.9895C32.843 56.4738 32.6385 57.8498 32.4882 58.668L31.9487 61.6303H34.0102ZM31.6795 63.565L31.0282 66.8605H28.6217L31.624 53.1505H34.5735L37.3007 66.8605H34.8815L34.2445 63.565H31.6795Z" fill="#F4F7FE"/>
<path d="M42.778 60.7363C42.778 60.5535 42.778 60.3398 42.7415 60.1445C42.6458 59.4675 42.2858 58.858 41.7063 58.858C40.7128 58.858 40.3473 60.2898 40.3473 61.9635C40.3473 63.887 40.8683 64.9818 41.6718 64.9818C42.0393 64.9818 42.4625 64.7935 42.6925 63.9865C42.7488 63.8255 42.7775 63.6105 42.7775 63.3585L42.778 60.7363ZM45.2483 52.7865V64.017C45.2483 64.9075 45.2935 66.002 45.3298 66.8583H43.1963L43.057 65.7162H43.0063C42.6475 66.4202 41.868 67.0192 40.936 67.0192C38.893 67.0192 37.8798 64.7645 37.8798 61.9178C37.8798 58.449 39.3905 56.7622 41.0373 56.7622C41.8988 56.7622 42.4563 57.1842 42.7368 57.794H42.7785V52.7868H45.2483V52.7865Z" fill="#F4F7FE"/>
<path d="M50.393 65.1247C51.3357 65.1247 51.5692 63.3477 51.5692 61.8765C51.5692 60.4775 51.3355 58.655 50.3515 58.655C49.309 58.655 49.09 60.4775 49.09 61.8765C49.09 63.5647 49.365 65.1247 50.3712 65.1247H50.393ZM50.3462 67.0192C48.07 67.0192 46.642 65.1912 46.642 61.92C46.642 58.3497 48.4752 56.7622 50.404 56.7622C52.6497 56.7622 54.0577 58.679 54.0577 61.862C54.0577 65.9515 51.852 67.0192 50.3657 67.0192H50.3462Z" fill="#F4F7FE"/>
<path d="M57.9087 63.3115C57.9087 63.559 57.9545 63.7912 58.007 63.9465C58.2547 64.7772 58.6747 64.9818 59.0112 64.9818C59.9667 64.9818 60.3522 63.7708 60.3522 61.8348C60.3522 60.0718 59.945 58.858 59.0005 58.858C58.5317 58.858 58.1372 59.3667 58.0015 59.9132C57.9545 60.0852 57.9092 60.353 57.9092 60.5373L57.9087 63.3115ZM55.4382 52.7865H57.9085V57.9618H57.9482C58.4347 57.1978 59.0827 56.7617 60.0242 56.7617C61.886 56.7617 62.8217 58.8793 62.8217 61.6478C62.8217 65.146 61.4262 67.0188 59.6185 67.0188C58.757 67.0188 58.1835 66.6367 57.6655 65.669H57.6132L57.4757 66.8583H55.355C55.3915 66.035 55.438 64.907 55.438 64.017V52.7865H55.4382Z" fill="#F4F7FE"/>
<path d="M68.7412 60.9442C68.7545 59.5492 68.3447 58.5717 67.5612 58.5717C66.6675 58.5717 66.2872 59.8802 66.26 60.9442H68.7412ZM66.251 62.691C66.2802 64.488 67.225 65.0725 68.3975 65.0725C69.1415 65.0725 69.778 64.9075 70.2487 64.7307L70.5817 66.5074C69.9262 66.7894 68.9147 66.9669 67.9447 66.9669C65.2937 66.9669 63.8457 65.1552 63.8457 62.0612C63.8457 58.7405 65.5257 56.746 67.7185 56.746C69.838 56.746 71.012 58.5085 71.012 61.386C71.012 62.045 70.9852 62.4157 70.9417 62.705L66.251 62.691Z" fill="#F4F7FE"/>
<path d="M55.2123 7.99023H71.014V45.8212L55.2123 7.99023Z" fill="#F4F7FE"/>
<path d="M44.0792 7.99023H28.2682V45.8212L44.0792 7.99023Z" fill="#F4F7FE"/>
<path d="M49.6476 21.9301L59.7146 45.8193H53.1186L50.1071 38.2101H42.7366L49.6476 21.9301Z" fill="#F4F7FE"/>
</svg>
