<svg width="100" height="75" viewBox="0 0 100 75" fill="none" xmlns="http://www.w3.org/2000/svg">
<path d="M7.30757 46.6727H3.63257V37.4977H1.13257V34.4977H3.63257V32.3727C3.63257 29.8477 4.73257 28.0477 8.40757 28.0477C9.18257 28.0477 10.4076 28.1977 10.4076 28.1977V30.9727H9.13257C7.83257 30.9727 7.30757 31.3727 7.30757 32.4727V34.4977H10.3576L10.0826 37.4977H7.30757V46.6727ZM15.7576 34.2477C15.7076 34.2477 15.6576 34.2477 15.5826 34.2477C12.1576 34.2477 10.6076 36.8227 10.6076 40.4727C10.6076 45.0727 12.6326 46.8977 15.6076 46.8977C17.3076 46.8977 18.4326 46.1727 19.1076 44.8477V46.6727H22.6076V34.4977H19.1076V36.3727C18.5826 35.1727 17.4326 34.2727 15.7576 34.2477ZM16.6576 37.1227C18.0826 37.1227 18.9576 38.1227 18.9576 39.8227V41.5727C18.9576 42.7227 18.2576 44.0727 16.6576 44.0727C14.2076 44.0727 14.2826 41.4477 14.2826 40.5477C14.2826 37.5977 15.5826 37.1227 16.6576 37.1227ZM24.0576 40.5727C24.0576 39.0977 23.9826 34.2477 30.2826 34.2477C32.8076 34.2477 33.8826 35.0477 33.8826 35.0477L33.0326 37.6727C33.0326 37.6727 31.9826 37.0977 30.6076 37.0977C28.8576 37.0977 27.7326 38.1227 27.7326 39.9227V41.2227C27.7326 42.9477 28.8076 44.0977 30.6076 44.0977C31.8576 44.0977 33.0076 43.5227 33.0076 43.5227L33.8576 46.0977C33.8576 46.0977 32.8826 46.8977 30.3076 46.8977C24.3076 46.9227 24.0576 42.5727 24.0576 40.5727ZM54.4076 34.2727C57.8326 34.2727 59.4076 36.8477 59.4076 40.4977C59.4076 45.0977 57.3826 46.9227 54.4076 46.9227C52.7076 46.9227 51.4326 46.1977 50.7576 44.8727V46.6977H47.3076V28.4477L50.9826 28.1227V36.2477C51.5076 34.7727 53.2576 34.2727 54.4076 34.2727ZM53.3826 37.1227C51.9576 37.1227 50.9826 38.1227 50.9826 39.8227V41.5727C50.9826 42.7227 51.6576 44.0727 53.3826 44.0727C55.8326 44.0727 55.7576 41.4477 55.7576 40.5477C55.7576 37.5977 54.4576 37.1227 53.3826 37.1227ZM40.2576 34.2727C36.3826 34.2727 34.3326 36.3727 34.3326 40.1477V40.8477C34.3326 45.7227 37.2076 46.9727 40.6326 46.9727C43.9576 46.9727 45.4576 46.0477 45.4576 46.0477L44.7826 43.5727C44.7826 43.5727 43.0076 44.3227 41.0826 44.3227C39.0826 44.3227 38.2076 43.8227 37.9826 41.8727H45.7576V39.8727C45.7576 35.7977 43.4576 34.2727 40.2576 34.2727ZM40.3326 36.7477C41.6826 36.7477 42.5326 37.5727 42.4826 39.4727H37.9576C38.0576 37.4727 39.0076 36.7477 40.3326 36.7477ZM66.7326 34.2477C62.7576 34.2477 60.6576 36.4977 60.6576 40.4977C60.6576 45.9977 64.2576 46.8977 66.7326 46.8977C70.3576 46.8977 72.7576 44.9477 72.7576 40.5477C72.7576 35.9727 70.0576 34.2477 66.7326 34.2477ZM66.6826 37.1477C68.4326 37.1477 69.1326 38.4477 69.1326 39.9477V41.2227C69.1326 43.0227 68.1576 44.0727 66.6826 44.0727C65.3076 44.0727 64.3326 43.0977 64.3326 41.2227V39.9477C64.3326 37.9477 65.4826 37.1477 66.6826 37.1477ZM80.0826 34.2477C76.1076 34.2477 74.0076 36.4977 74.0076 40.4977C74.0076 45.9977 77.6076 46.8977 80.0826 46.8977C83.7076 46.8977 86.1076 44.9477 86.1076 40.5477C86.1076 35.9727 83.4076 34.2477 80.0826 34.2477ZM80.0326 37.1477C81.7826 37.1477 82.4826 38.4477 82.4826 39.9477V41.2227C82.4826 43.0227 81.5076 44.0727 80.0326 44.0727C78.6576 44.0727 77.6826 43.0977 77.6826 41.2227V39.9477C77.6826 37.9477 78.8326 37.1477 80.0326 37.1477ZM87.5076 46.6727V28.4227L91.1826 28.0977V40.3227L94.8326 34.4977H98.7326L94.9326 40.5477L98.8826 46.6727H94.9826L91.1826 40.7227V46.6727H87.5076Z" fill="#F4F7FE"/>
</svg>
