<svg width="100" height="36" viewBox="0 0 100 36" fill="none" xmlns="http://www.w3.org/2000/svg">
<path d="M25.4885 12.9652H14.2527V16.2994H22.2213C21.8277 20.9746 17.9378 22.9685 14.2662 22.9685C9.56874 22.9685 5.46951 19.2726 5.46951 14.0921C5.46951 9.04563 9.37703 5.1592 14.2766 5.1592C18.0565 5.1592 20.2839 7.56871 20.2839 7.56871L22.6185 5.15125C22.6185 5.15125 19.6222 1.81555 14.1573 1.81555C7.19847 1.81555 1.81506 7.68867 1.81506 14.0325C1.81506 20.2487 6.87902 26.3101 14.3347 26.3101C20.892 26.3101 25.692 21.8181 25.692 15.1754C25.692 13.7742 25.4885 12.9642 25.4885 12.9642V12.9652Z" fill="#F4F7FE"/>
<path d="M34.6925 10.5508C30.0821 10.5508 26.7781 14.1553 26.7781 18.3589C26.7781 22.6248 29.9829 26.2962 34.7466 26.2962C39.0591 26.2962 42.5923 23 42.5923 18.4507C42.5923 13.2362 38.4825 10.5508 34.6925 10.5508ZM34.7383 13.6431C37.0054 13.6431 39.1539 15.4761 39.1539 18.4296C39.1539 21.3205 37.0146 23.2058 34.7279 23.2058C32.2152 23.2058 30.233 21.1933 30.233 18.4066C30.233 15.6797 32.1907 13.6431 34.7383 13.6431Z" fill="#F4F7FE"/>
<path d="M51.9052 10.5508C47.2948 10.5508 43.9907 14.1553 43.9907 18.3589C43.9907 22.6248 47.1956 26.2962 51.9593 26.2962C56.2718 26.2962 59.8047 23 59.8047 18.4507C59.8049 13.2362 55.6951 10.5508 51.9052 10.5508ZM51.951 13.6431C54.2184 13.6431 56.3667 15.4761 56.3667 18.4296C56.3667 21.3205 54.2274 23.2058 51.9406 23.2058C49.4281 23.2058 47.4459 21.1933 47.4459 18.4066C47.4459 15.6797 49.4033 13.6431 51.951 13.6431Z" fill="#F4F7FE"/>
<path d="M68.7881 10.5588C64.5563 10.5588 61.23 14.2651 61.23 18.4252C61.23 23.1638 65.0863 26.3061 68.7152 26.3061C70.9589 26.3061 72.152 25.4155 73.0329 24.3932V25.9455C73.0329 28.6615 71.3838 30.2883 68.8946 30.2883C66.4898 30.2883 65.2837 28.5002 64.8646 27.4855L61.839 28.7505C62.9123 31.0202 65.073 33.387 68.9199 33.387C73.1273 33.387 76.334 30.7369 76.334 25.1787V11.0323H73.0333V12.3659C72.0182 11.2722 70.6302 10.559 68.7881 10.5588ZM69.0945 13.6451C71.1691 13.6451 73.2998 15.4167 73.2998 18.442C73.2998 21.5172 71.1738 23.2119 69.0487 23.2119C66.7925 23.2119 64.6934 21.3801 64.6934 18.4712C64.6934 15.4487 66.8735 13.6451 69.0945 13.6451Z" fill="#F4F7FE"/>
<path d="M91.0101 10.5402C87.0182 10.5402 83.6667 13.7161 83.6667 18.4024C83.6667 23.3613 87.4024 26.3021 91.3936 26.3021C94.7247 26.3021 96.7689 24.4798 97.9888 22.8472L95.2673 21.0363C94.5611 22.1322 93.3805 23.2034 91.4102 23.2034C89.1967 23.2034 88.1793 21.9915 87.5489 20.8174L98.105 16.4373L97.557 15.1536C96.5373 12.6399 94.1582 10.5405 91.0104 10.5405L91.0101 10.5402ZM91.1475 13.568C92.586 13.568 93.6211 14.3327 94.0609 15.2496L87.0114 18.1962C86.7074 15.9149 88.8685 13.568 91.1475 13.568Z" fill="#F4F7FE"/>
<path d="M78.634 25.8348H82.1015V2.62976H78.634V25.8348Z" fill="#F4F7FE"/>
</svg>
