<svg width="100" height="100" viewBox="0 0 100 100" fill="none" xmlns="http://www.w3.org/2000/svg">
<g clip-path="url(#clip0_17_127)">
<path d="M99.9387 41.2536C97.8762 29.3581 48.1149 31.2224 16.8286 44.3839L14.3422 45.4745C4.89945 49.8042 -0.650936 54.614 0.0611733 58.7452C2.13637 70.7243 52.3485 68.7071 83.4522 55.496L87.1614 53.8134C95.6854 49.671 100.613 45.1614 99.9387 41.2536Z" fill="#F4F7FE"/>
<path d="M5.19828 58.7453C4.48617 54.6141 10.0366 49.8041 19.4793 45.4746L21.9657 44.384C37.5096 37.8451 59.1608 33.7118 76.5407 33.3342C57.9696 32.9069 33.5959 37.3305 16.8286 44.384L14.3422 45.4746C4.89945 49.8043 -0.650936 54.6141 0.0611733 58.7453C1.00063 64.1684 12.4829 67.0154 28.5829 66.6653C15.2223 66.3574 6.03442 63.5719 5.19828 58.7453Z" fill="#F4F7FE"/>
<path d="M83.7066 49.5744V50.5879C83.7066 50.7541 83.8414 50.8889 84.0076 50.8889H84.5849C84.6959 50.8889 84.7859 50.9789 84.7859 51.0899V52.424C84.791 52.5613 84.7828 52.709 84.7605 52.827C84.7158 53.1139 84.4463 53.5992 83.6802 53.5992C82.9174 53.5992 82.6527 53.1139 82.6051 52.827C82.5857 52.709 82.5765 52.5615 82.5765 52.424V47.5785C82.5765 47.4057 82.5888 47.2196 82.6254 47.0791C82.6773 46.8207 82.9053 46.31 83.6742 46.31C84.481 46.31 84.6814 46.8461 84.7261 47.0791C84.7576 47.2307 84.7607 47.4871 84.7607 47.4871V47.8022C84.7607 47.9524 84.8824 48.074 85.0326 48.074H87.0748C87.2627 48.074 87.415 47.9217 87.415 47.7338V47.7262C87.415 47.7262 87.4261 47.3631 87.3947 47.0242C87.1963 45.0354 85.5666 44.4088 83.6957 44.4088C81.8238 44.4088 80.2277 45.0426 79.9957 47.0242C79.9754 47.2072 79.9427 47.5338 79.9427 47.7262V52.185C79.9427 52.3772 79.9478 52.5278 79.9834 52.8838C80.1492 54.7342 81.6863 55.4402 83.4525 55.4963L87.1617 53.8137C87.2838 53.543 87.3652 53.2338 87.3998 52.8838C87.4283 52.5278 87.4312 52.3772 87.4385 52.185V49.5865C87.4385 49.4518 87.3293 49.3426 87.1945 49.3426H83.9388C83.8105 49.3424 83.7066 49.4463 83.7066 49.5744Z" fill="#343A40"/>
<path d="M21.2223 51.551C20.7797 49.3241 16.7788 48.6668 16.4786 47.4249C16.4297 47.2122 16.4409 46.9864 16.4684 46.8694C16.5426 46.5307 16.7696 46.1541 17.4319 46.1541C18.0514 46.1541 18.4147 46.5407 18.4147 47.1186V47.542C18.4147 47.67 18.5184 47.7739 18.6465 47.7739H20.7124C20.8958 47.7739 21.0444 47.6252 21.0444 47.4418V47.0272C21.0444 44.7241 18.9772 44.3557 17.4848 44.3557C17.26 44.3557 17.0403 44.3639 16.8286 44.3842L14.3422 45.4749C14.0706 45.8024 13.8834 46.2073 13.802 46.711C13.7247 47.187 13.7124 47.6041 13.8233 48.1403C14.279 50.3061 18.0278 50.9358 18.5731 52.3051C18.6749 52.5616 18.6422 52.8872 18.5924 53.0875C18.5059 53.4457 18.2678 53.8038 17.5629 53.8038C16.9057 53.8038 16.51 53.4192 16.51 52.8403L16.5067 52.0315C16.5063 51.9145 16.4114 51.82 16.2944 51.82H13.9624C13.8053 51.82 13.678 51.9473 13.678 52.1043V52.6307C13.678 55 15.5286 55.7131 17.5092 55.7131C19.4157 55.7131 20.9813 55.061 21.2356 53.2868C21.3627 52.3731 21.267 51.7748 21.2223 51.551Z" fill="#343A40"/>
<path d="M28.7376 55.0741L27.4073 45.986C27.3946 45.8997 27.2702 45.8995 27.2573 45.9858L25.8896 55.1047C25.8734 55.2135 25.7798 55.2938 25.6698 55.2938H23.2245C23.115 55.2938 23.0321 55.1944 23.0519 55.0866L24.9069 45.018C24.9417 44.8295 25.1062 44.6926 25.2978 44.6926H29.3763C29.5368 44.6926 29.6745 44.8073 29.7036 44.9653L31.5589 55.0776C31.5796 55.1901 31.4931 55.294 31.3786 55.294H28.9913C28.8642 55.2936 28.7562 55.2003 28.7376 55.0741Z" fill="#343A40"/>
<path d="M42.7806 54.9483L42.7145 45.98C42.7141 45.9221 42.6304 45.9147 42.62 45.9716L40.9374 55.0755C40.914 55.2018 40.8038 55.2936 40.6753 55.2936H38.5536C38.3618 55.2936 38.1974 55.1567 38.1624 54.968L36.5112 46.0239C36.4997 45.961 36.4071 45.9692 36.4067 46.0331L36.3401 55.0835C36.3393 55.1997 36.2448 55.2936 36.1284 55.2936H33.9815C33.8286 55.2936 33.7054 55.1678 33.7087 55.0149L33.9259 45.0038C33.9296 44.8307 34.071 44.6923 34.2442 44.6923H37.938C38.1079 44.6923 38.2526 44.8157 38.2796 44.9835L39.46 52.3352C39.479 52.4528 39.6479 52.4528 39.6669 52.3352L40.8511 44.9604C40.8759 44.8059 41.0091 44.6925 41.1655 44.6925H44.9622C45.0884 44.6925 45.1915 44.7932 45.1942 44.9194L45.4181 54.9288C45.4225 55.129 45.2614 55.2938 45.0612 55.2938H43.1286C42.9374 55.2936 42.7821 55.1395 42.7806 54.9483Z" fill="#343A40"/>
<path d="M55.4813 53.256C55.2321 55.0109 53.6766 55.6548 51.7915 55.6548C49.8261 55.6548 47.9999 54.9498 47.9999 52.607V52.0187C47.9999 51.8965 48.0991 51.7972 48.2214 51.7972H50.5378C50.6823 51.7972 50.7997 51.9144 50.7997 52.0591V52.8146C50.7997 53.3863 51.1954 53.7658 51.8507 53.7658C52.5516 53.7658 52.7866 53.4127 52.8671 53.0607C52.9159 52.8654 52.9423 52.5379 52.8477 52.2814C52.3106 50.9273 48.5995 50.3049 48.1477 48.1613C48.0307 47.6312 48.0481 47.2152 48.1214 46.7482C48.4012 45.032 49.9169 44.4154 51.7725 44.4154C53.2497 44.4154 55.2852 44.7734 55.2852 47.0593V47.5025C55.2852 47.6638 55.1544 47.7947 54.993 47.7947H52.955C52.8059 47.7947 52.6852 47.674 52.6852 47.525V47.1478C52.6852 46.5771 52.3282 46.1945 51.7198 46.1945C51.0667 46.1945 50.8397 46.5648 50.7624 46.9037C50.738 47.0185 50.7268 47.2414 50.7725 47.4531C51.0725 48.6779 55.027 49.3392 55.4624 51.5386C55.5097 51.7595 55.5993 52.3496 55.4813 53.256Z" fill="#343A40"/>
<path d="M65.3724 52.9926C65.1853 54.9733 63.6349 55.6153 61.6927 55.6153C59.7527 55.6153 58.2013 54.9733 58.0181 52.9926C58.006 52.8868 57.9917 52.4879 57.9947 52.2928V45.0997C57.9947 44.8749 58.1769 44.6926 58.4017 44.6926H60.2911C60.4948 44.6926 60.6601 44.8579 60.6601 45.0616V52.536C60.655 52.6713 60.6601 52.827 60.6864 52.9389C60.7374 53.2014 60.9652 53.708 61.6925 53.708C62.428 53.708 62.6487 53.2014 62.7048 52.9389C62.7282 52.827 62.7333 52.6713 62.7282 52.536V45.0176C62.7282 44.8381 62.8737 44.6926 63.0532 44.6926H65.0306C65.231 44.6926 65.3935 44.8551 65.3935 45.0555V52.2928C65.405 52.4879 65.3886 52.8868 65.3724 52.9926Z" fill="#343A40"/>
<path d="M76.8423 55.1828H73.6664C73.5234 55.1828 73.3972 55.0893 73.3558 54.9524L70.9337 46.9584C70.9052 46.8641 70.766 46.886 70.7677 46.9844L70.9021 54.8418C70.9052 55.0291 70.7544 55.1826 70.5671 55.1826H68.6519C68.4687 55.1826 68.3201 55.034 68.3201 54.8508V45.0449C68.3201 44.85 68.4781 44.6922 68.6728 44.6922H71.8851C72.091 44.6922 72.2722 44.8281 72.3296 45.0258L74.5988 52.8283C74.6169 52.8906 74.7089 52.8768 74.708 52.8119L74.5794 45.053C74.5761 44.8547 74.7361 44.692 74.9343 44.692H76.9099C77.0585 44.692 77.1789 44.8125 77.1789 44.961V54.8463C77.1783 55.0324 77.0279 55.1828 76.8423 55.1828Z" fill="#343A40"/>
</g>
<defs>
<clipPath id="clip0_17_127">
<rect width="100" height="100" fill="white"/>
</clipPath>
</defs>
</svg>
