<svg width="100" height="75" viewBox="0 0 100 75" fill="none" xmlns="http://www.w3.org/2000/svg">
<path fill-rule="evenodd" clip-rule="evenodd" d="M61.7001 45.75C56.05 49.925 47.875 52.125 40.825 52.125C30.95 52.125 22.05 48.475 15.3 42.4C14.775 41.925 15.25 41.275 15.875 41.65C23.15 45.875 32.125 48.425 41.4 48.425C47.65 48.425 54.55 47.125 60.875 44.45C61.85 44.025 62.6501 45.075 61.7001 45.75ZM64.0501 43.075C63.3251 42.15 59.2751 42.65 57.4501 42.85C56.9 42.925 56.8 42.425 57.3 42.1C60.525 39.825 65.825 40.475 66.45 41.25C67.075 42.025 66.3 47.325 63.25 49.85C62.7751 50.25 62.35 50.025 62.55 49.525C63.25 47.825 64.7751 44 64.0501 43.075Z" fill="#F4F7FE"/>
<path fill-rule="evenodd" clip-rule="evenodd" d="M57.5751 26.05V23.85C57.5751 23.525 57.8251 23.3 58.125 23.3H68.025C68.35 23.3 68.6 23.525 68.6 23.85V25.75C68.6 26.075 68.325 26.475 67.85 27.15L62.725 34.475C64.625 34.425 66.65 34.7 68.375 35.675C68.775 35.9 68.875 36.225 68.9 36.525V38.875C68.9 39.2 68.55 39.575 68.175 39.375C65.125 37.775 61.1 37.6 57.725 39.4C57.375 39.575 57.0251 39.225 57.0251 38.9V36.65C57.0251 36.3 57.0251 35.675 57.4001 35.125L63.3251 26.6H58.1501C57.8501 26.6 57.5751 26.375 57.5751 26.05ZM21.5 39.825H18.5C18.2001 39.8 17.975 39.6 17.975 39.325V23.875C17.975 23.575 18.225 23.325 18.55 23.325H21.35C21.65 23.35 21.875 23.55 21.9 23.85V25.875H21.9501C22.6751 23.925 24.05 23.025 25.9 23.025C27.775 23.025 28.95 23.925 29.8 25.875C30.525 23.925 32.1751 23.025 33.9501 23.025C35.2001 23.025 36.6 23.55 37.425 24.725C38.375 26.025 38.175 27.9 38.175 29.575V39.325C38.175 39.625 37.925 39.875 37.6 39.875H34.6C34.3 39.85 34.05 39.625 34.05 39.325V31.15C34.05 30.5 34.1 28.875 33.975 28.25C33.75 27.225 33.0751 26.925 32.2001 26.925C31.475 26.925 30.7 27.4 30.4 28.2C30.1 28.975 30.125 30.275 30.125 31.15V39.325C30.125 39.625 29.875 39.875 29.55 39.875H26.55C26.25 39.85 26 39.625 26 39.325V31.15C26 29.425 26.275 26.9 24.15 26.9C22 26.9 22.0751 29.375 22.0751 31.15V39.325C22.1 39.575 21.8251 39.825 21.5 39.825ZM77.125 23C81.6 23 84 26.825 84 31.7C84 36.4 81.325 40.15 77.125 40.15C72.75 40.15 70.35 36.325 70.35 31.55C70.35 26.725 72.775 23 77.125 23ZM77.15 26.15C74.925 26.15 74.8 29.175 74.8 31.05C74.8 32.925 74.775 36.975 77.125 36.975C79.45 36.975 79.575 33.725 79.575 31.75C79.575 30.45 79.525 28.9 79.125 27.65C78.775 26.575 78.1 26.15 77.15 26.15ZM89.775 39.825H86.775C86.475 39.8 86.225 39.575 86.225 39.275V23.825C86.25 23.55 86.5 23.325 86.8 23.325H89.6C89.85 23.35 90.075 23.525 90.125 23.75V26.1H90.175C91.025 24 92.2001 22.975 94.275 22.975C95.625 22.975 96.9501 23.45 97.775 24.8C98.55 26.025 98.55 28.125 98.55 29.6V39.325C98.525 39.6 98.275 39.8 97.975 39.8H95C94.725 39.775 94.5 39.575 94.475 39.325V30.95C94.475 29.25 94.675 26.8 92.6 26.8C91.875 26.8 91.2 27.3 90.85 28.025C90.425 28.975 90.375 29.9 90.375 30.95V39.275C90.375 39.575 90.1 39.825 89.775 39.825ZM49.7001 32.45C49.7001 33.625 49.725 34.6 49.125 35.65C48.6501 36.5 47.875 37.025 47.05 37.025C45.9 37.025 45.225 36.15 45.225 34.85C45.225 32.275 47.5251 31.825 49.7001 31.825V32.45ZM52.725 39.8C52.525 39.975 52.25 40 52.0251 39.875C51.0251 39.05 50.85 38.65 50.3 37.875C48.65 39.55 47.475 40.075 45.35 40.075C42.825 40.075 40.85 38.525 40.85 35.375C40.85 32.925 42.175 31.275 44.05 30.45C45.675 29.725 47.9751 29.6 49.7001 29.4V29C49.7001 28.275 49.75 27.45 49.3251 26.825C48.9501 26.275 48.25 26.05 47.625 26.05C46.475 26.05 45.4501 26.65 45.2001 27.85C45.1501 28.125 44.9501 28.375 44.675 28.4L41.75 28.075C41.5 28.025 41.225 27.825 41.3 27.45C41.975 23.9 45.1751 22.85 48.0251 22.85C49.5 22.85 51.4 23.25 52.55 24.35C54.025 25.725 53.875 27.55 53.875 29.525V34.225C53.875 35.625 54.4501 36.25 55 37.025C55.2001 37.3 55.225 37.625 54.975 37.825C54.425 38.325 53.35 39.275 52.725 39.8ZM10.25 32.45C10.25 33.625 10.275 34.6 9.67505 35.65C9.20005 36.5 8.45005 37.025 7.60005 37.025C6.45005 37.025 5.77505 36.15 5.77505 34.85C5.77505 32.275 8.07505 31.825 10.25 31.825V32.45ZM13.3 39.8C13.1 39.975 12.825 40 12.6 39.875C11.6 39.05 11.425 38.65 10.875 37.875C9.22505 39.55 8.05005 40.075 5.92505 40.075C3.40005 40.075 1.42505 38.525 1.42505 35.375C1.42505 32.925 2.75005 31.275 4.62505 30.45C6.25005 29.725 8.55005 29.6 10.275 29.4V29C10.275 28.275 10.325 27.45 9.90005 26.825C9.52505 26.275 8.82505 26.05 8.20005 26.05C7.05005 26.05 6.02505 26.65 5.77505 27.85C5.72505 28.125 5.52505 28.375 5.25005 28.4L2.32505 28.075C2.07505 28.025 1.80005 27.825 1.87505 27.45C2.55005 23.9 5.75005 22.85 8.60005 22.85C10.075 22.85 11.975 23.25 13.125 24.35C14.6 25.725 14.45 27.55 14.45 29.525V34.225C14.45 35.625 15.025 36.25 15.575 37.025C15.775 37.3 15.8 37.625 15.575 37.825C15 38.325 13.9 39.275 13.3 39.8Z" fill="#F4F7FE"/>
</svg>
