<svg width="100" height="100" viewBox="0 0 100 100" fill="none" xmlns="http://www.w3.org/2000/svg">
<g clip-path="url(#clip0_17_106)">
<path d="M47.5012 75.8225C-3.99329 80.5727 -0.339384 50.9115 10.9223 38.6283V35.9492C2.63484 43.2174 -1.85638 52.4145 0.730733 63.2781C7.02019 89.799 58.9341 85.924 83.051 72.6772V65.101C74.2325 70.3553 59.6497 74.6953 47.5012 75.8225Z" fill="#F4F7FE"/>
<path d="M99.5569 35.7677C94.8696 12.8841 50.4376 11.4333 21.7964 28.8679V30.7939C50.405 16.0855 90.9853 16.175 94.6798 37.2552C95.9194 44.2283 91.9917 51.4935 84.9743 55.6763V61.1463C93.4157 58.0498 102.074 48.0349 99.5569 35.7677Z" fill="#F4F7FE"/>
<path d="M82.9244 65.1746V69.2442C58.2689 82.7868 2.44119 87.1793 0.0532945 55.6832C-0.103932 58.1151 0.104076 60.6473 0.730638 63.2785C7.02009 89.7995 58.934 85.9245 83.051 72.6776V65.1014C83.0095 65.1256 82.966 65.15 82.9244 65.1746Z" fill="#F4F7FE"/>
<path d="M84.9742 55.6762V61.1462C85.8193 60.8362 86.6666 60.4555 87.5049 60.0116V57.6829C87.5049 56.9167 87.8861 56.2001 88.5232 55.7745C94.8988 51.5163 98.3896 44.6237 97.2111 37.9948C95.8311 30.12 89.3033 25.1747 80.1758 22.8352C87.9668 25.4032 93.4309 30.1297 94.6797 37.2553C95.9193 44.2284 91.9916 51.4936 84.9742 55.6762Z" fill="#F4F7FE"/>
<path d="M81.2059 32.4355H76.5192C76.3826 32.4355 76.2721 32.5461 76.2721 32.6826V55.5107C76.2721 58.15 77.5172 60.4535 81.1776 60.9121C81.3239 60.9305 81.4531 60.8135 81.4531 60.666V32.6826C81.4531 32.5461 81.3424 32.4355 81.2059 32.4355Z" fill="#F4F7FE"/>
<path d="M19.5148 40.8607H14.8185C14.682 40.8607 14.5715 40.9713 14.5715 41.1078L14.5687 55.9367C14.5687 58.5855 15.8179 60.8867 19.4869 61.3386C19.633 61.3566 19.7619 61.2398 19.7619 61.0925V41.1078C19.7619 40.9713 19.6513 40.8607 19.5148 40.8607Z" fill="#F4F7FE"/>
<path d="M14.5715 33.3848V37.8018C14.5715 37.9383 14.6821 38.0488 14.8186 38.0488H19.4987C19.6352 38.0488 19.7458 37.9383 19.7458 37.8018V33.3848C19.7458 33.2482 19.6352 33.1377 19.4987 33.1377H14.8186C14.6821 33.1375 14.5715 33.2482 14.5715 33.3848Z" fill="#F4F7FE"/>
<path d="M50.7905 61.1299C46.5967 61.1299 44.8219 58.2152 44.8219 55.3439V35.5736C44.8219 35.4371 44.9324 35.3265 45.069 35.3265H49.711C49.8475 35.3265 49.958 35.4371 49.958 35.5736V40.6135C49.958 40.75 50.0686 40.8605 50.2051 40.8605H53.5785C53.7151 40.8605 53.8256 40.9711 53.8256 41.1076V44.7619C53.8256 44.8984 53.7151 45.009 53.5785 45.009H50.2051C50.0686 45.009 49.958 45.1195 49.958 45.256V55.0264C49.958 56.1969 50.5137 56.8492 51.7342 56.8492H53.5785C53.7151 56.8492 53.8256 56.9598 53.8256 57.0963V60.8824C53.8256 61.0189 53.7151 61.1295 53.5785 61.1295H50.7905" fill="#F4F7FE"/>
<path d="M60.2409 52.6017C60.2409 55.2302 61.8847 57.1614 64.7927 57.1614C66.9722 57.1614 68.0944 56.5833 69.3392 55.396C69.4351 55.3046 69.5856 55.3024 69.6815 55.3936L72.497 58.0755C72.5987 58.1724 72.5997 58.3362 72.4983 58.4337C70.5185 60.3362 68.403 61.4852 64.7546 61.4852C59.8394 61.4852 55.1304 58.8024 55.1304 50.9821C55.1304 44.2962 59.2454 40.5171 64.6407 40.5171C70.1255 40.5171 73.2776 44.9413 73.2776 50.7489V52.3544C73.2776 52.4909 73.1671 52.6015 73.0306 52.6015L60.2409 52.6017ZM60.7347 46.8917C60.4351 47.5511 60.3062 48.0794 60.2554 48.8335C60.2458 48.9768 60.3585 49.0997 60.5022 49.0997H67.8937C68.036 49.0997 68.1513 48.9794 68.1403 48.8374C67.7151 43.3466 62.0464 44.0919 60.7347 46.8917Z" fill="#F4F7FE"/>
<path d="M33.7112 45.0092C35.2173 45.0092 35.8433 45.7537 35.8433 46.9623V60.9127C35.8433 61.0493 35.9538 61.1598 36.0903 61.1598H40.7331C40.8696 61.1598 40.9802 61.0493 40.9802 60.9127V46.9325C40.9802 44.0494 39.4442 40.8662 34.9333 40.8662L24.569 40.861C24.4325 40.861 24.3218 40.9715 24.3218 41.108V60.9127C24.3218 61.0493 24.4323 61.1598 24.5688 61.1598H29.2136C29.3501 61.1598 29.4606 61.0493 29.4606 60.9127V45.2563C29.4606 45.1198 29.5712 45.0092 29.7077 45.0092H33.7112Z" fill="#F4F7FE"/>
<path d="M78.8879 55.5107V32.6826C78.8879 32.5461 78.9985 32.4355 79.135 32.4355H76.5192C76.3826 32.4355 76.2721 32.5461 76.2721 32.6826V55.5107C76.2721 58.15 77.5172 60.4535 81.1776 60.9121C81.3239 60.9305 81.4531 60.8135 81.4531 60.666V60.2297C79.5817 59.2611 78.8879 57.4797 78.8879 55.5107Z" fill="#F4F7FE"/>
<path d="M17.1845 55.9367L17.1873 41.1078C17.1873 40.9715 17.2978 40.8607 17.4344 40.8607H14.8185C14.682 40.8607 14.5715 40.9713 14.5715 41.1078L14.5687 55.9367C14.5687 58.5855 15.8181 60.8867 19.4869 61.3386C19.6332 61.3566 19.7621 61.2398 19.7621 61.0925V60.6632C17.8816 59.698 17.1845 57.9144 17.1845 55.9367Z" fill="#F4F7FE"/>
<path d="M17.1874 37.8015V33.3845C17.1874 33.248 17.2979 33.1375 17.4344 33.1375H14.8186C14.6821 33.1375 14.5715 33.248 14.5715 33.3845V37.8015C14.5715 37.938 14.6821 38.0486 14.8186 38.0486H17.4344C17.2979 38.0486 17.1874 37.938 17.1874 37.8015Z" fill="#F4F7FE"/>
<path d="M47.4378 55.344V35.5739C47.4378 35.4373 47.5484 35.3268 47.6849 35.3268H45.0691C44.9326 35.3268 44.822 35.4373 44.822 35.5739V55.3442C44.822 58.2155 46.5966 61.1301 50.7906 61.1301H53.4064C49.2124 61.1299 47.4378 58.2153 47.4378 55.344Z" fill="#F4F7FE"/>
<path d="M57.7465 50.9823C57.7465 44.8698 61.1865 41.1891 65.8992 40.6022C65.4941 40.5481 65.0758 40.5172 64.641 40.5172C59.2457 40.5172 55.1309 44.2963 55.1309 50.9823C55.1309 58.8026 59.8398 61.4854 64.7551 61.4854C65.2391 61.4854 65.6945 61.4637 66.1277 61.4242C61.6908 60.9914 57.7465 58.1393 57.7465 50.9823Z" fill="#F4F7FE"/>
<path d="M26.9375 60.9127V41.108C26.9375 40.9739 27.0449 40.8658 27.1781 40.8623L24.5689 40.861C24.4324 40.861 24.3217 40.9715 24.3217 41.108V60.9127C24.3217 61.0493 24.4322 61.1598 24.5687 61.1598H27.1846C27.0482 61.1598 26.9375 61.0491 26.9375 60.9127Z" fill="#F4F7FE"/>
</g>
<defs>
<clipPath id="clip0_17_106">
<rect width="100" height="100" fill="white"/>
</clipPath>
</defs>
</svg>
